<svg xmlns="http://www.w3.org/2000/svg" viewBox="0 0 341.96 239.94"><defs><style>.cls-1{fill:#fff}</style></defs><g id="Слой_2" data-name="Слой 2"><g id="Layer_1_copy_2" data-name="Layer 1 copy 2"><path class="cls-1" d="M338.38 137.79a10.35 10.35 0 00-3.23.73 9.51 9.51 0 00-2.31 1.36 19 19 0 00-1.78 1.81l-1.73 1.86q-3.46 3.7-7.07 7.25-7.2 7.09-14.89 13.69a277.59 277.59 0 01-32.5 24.09 221.57 221.57 0 01-36 18.66 177.3 177.3 0 01-39.3 10.88 150.14 150.14 0 01-20.44 1.7c-6.79.09-13.59-.16-20.36-.65a257.09 257.09 0 01-40.18-6.24 292.35 292.35 0 01-75.9-29.33l2.54.82c-9.42-1.68-18.83-3-28.4-5.17a71.32 71.32 0 01-7.28-2 28.75 28.75 0 01-3.84-1.59 12.14 12.14 0 01-4.2-3.31 7.23 7.23 0 01-1.45-3.56 7.81 7.81 0 01.43-3.51 7.33 7.33 0 01.73-1.5l.54-.88c.36-.55.71-1.06 1.06-1.57 1.41-2 2.85-3.94 4.27-5.87 5.74-7.66 11.65-15.12 17.81-22.4s12.74-14.17 19.51-20.87A363.34 363.34 0 0187.94 75c15.54-11.12 32.3-20.86 50.48-27.51a135 135 0 0128.16-7.1 109.36 109.36 0 0114.59-1 137.71 137.71 0 0114.5.81c19.27 2.09 37.85 8.37 54.86 17.19a234.44 234.44 0 0147 32.7q10.73 9.47 20.49 19.95 4.88 5.24 9.48 10.71 2.31 2.75 4.53 5.56l1.11 1.42a6.45 6.45 0 001.26 1.3 7.82 7.82 0 004.29 1.47 3.63 3.63 0 01-.05 7.24zm-9.37-4.3c0-.1-.05-.21-.08-.31a5.78 5.78 0 00-.89-1.5L327 130.3q-2.14-2.75-4.38-5.43-4.47-5.39-9.21-10.53a277.68 277.68 0 00-19.95-19.62 246.37 246.37 0 00-21.92-17.3 192.81 192.81 0 00-23.87-14.35c-16.52-8.38-34.38-14.19-52.69-16a121.27 121.27 0 00-13.74-.62 102.09 102.09 0 00-13.62 1.11 127.26 127.26 0 00-26.51 7.09 177.83 177.83 0 00-25 11.91 249.54 249.54 0 00-23.34 15.16 353.5 353.5 0 00-42.2 36.61C44 125 37.65 131.81 31.34 138.7s-12.44 14-18 21.38c-1.4 1.84-2.75 3.74-4 5.61-.31.47-.61.94-.89 1.38l-.45.63c-.11.18-.2.4-.06.08 0 .18 0 .16 0 0s-.11-.37-.08-.35a5.84 5.84 0 001.44.86 20.77 20.77 0 002.75 1 60.64 60.64 0 006.45 1.35c4.47.7 9.09 1.14 13.72 1.43s9.32.45 14 .43h.27a5.44 5.44 0 012.27.79q8.27 5.16 17 9.67t17.78 8.32a276.21 276.21 0 0037.15 12.81 247.8 247.8 0 0038.68 7c6.54.64 13.07.95 19.63 1a143.82 143.82 0 0019.44-1.28 162.32 162.32 0 0037.81-9.93 214.31 214.31 0 0035.14-17.73 268.07 268.07 0 0031.83-23.42q7.53-6.42 14.61-13.34 3.54-3.47 6.94-7l1.68-1.81a14.37 14.37 0 001.59-1.88 8 8 0 00.96-2.21z"/><path class="cls-1" d="M13.64 73.68a232.27 232.27 0 0131.63-31.47 187.36 187.36 0 0137.7-24 164.72 164.72 0 0142.58-13.68 167.65 167.65 0 0122.22-2.37c3.71-.14 7.44-.17 11.14-.07s7.44.32 11.14.66a221.29 221.29 0 0143.36 8.71 309.2 309.2 0 0141.07 15.75A348 348 0 01293 48.15c6.19 3.9 12.25 8 18.15 12.34a201.39 201.39 0 0117 13.9 1.59 1.59 0 01-2.12 2.36A197.3 197.3 0 00309 63.51q-8.88-6.19-18.21-11.71a344.78 344.78 0 00-38.52-19.69 303.48 303.48 0 00-40.64-14.42 214.41 214.41 0 00-42.18-7.38 160.36 160.36 0 00-42.3 2.76A155.78 155.78 0 0087.29 27a177.13 177.13 0 00-35 23.62 220.54 220.54 0 00-29.35 30.65 6 6 0 01-9.41-7.46l.08-.09z"/><path class="cls-1" d="M240.81 50.83c-1.4 2.6-.87 3.54-.15 4.2s1.28 1.51 1.91 2.27q1.86 2.33 3.59 4.74a93.36 93.36 0 016.29 10.08A91.7 91.7 0 01261 94.34a85.39 85.39 0 012.21 23.87 80.43 80.43 0 01-4.86 23.62 86 86 0 01-119.47 46.7 84.32 84.32 0 01-34.41-32.18 85.63 85.63 0 01-11.71-45.18A92 92 0 0196.15 88a96.1 96.1 0 014-11c.78-1.8 1.63-3.57 2.53-5.31.45-.87.92-1.73 1.4-2.58.16-1.08 2.33-.83-1.73-4.58l10.14 6.41c-5.07-2.13-3.9-.25-4.71.33-.48.8-.94 1.6-1.4 2.41q-1.36 2.45-2.55 5a70.48 70.48 0 00-4 10.45 78.4 78.4 0 00-2.4 10.87 80.07 80.07 0 00-.71 11.17 78.23 78.23 0 0012.79 42 82.77 82.77 0 0014.34 16.66A80.35 80.35 0 00142.07 182a78.6 78.6 0 00107.53-43.4 84.24 84.24 0 004.92-21 80.65 80.65 0 00-.64-21.77 72.32 72.32 0 00-6.82-20.86 71.39 71.39 0 00-5.73-9.43c-1.07-1.5-2.21-3-3.4-4.35-.6-.7-1.21-1.4-1.83-2.08s-1.31-1.23-4 0z"/><path fill="none" d="M7.75 0h332v239.94h-332z"/><path class="cls-1" d="M57.2 190.45c-.71-.67-1.18-1.17-1.72-1.75s-1-1.11-1.53-1.67c-1-1.13-2-2.24-2.86-3.38q-2.76-3.42-5.17-7a82.48 82.48 0 01-8.06-15.3 79.35 79.35 0 01-4.49-16.75q-.67-4.32-.94-8.73c-.19-3-.21-5.91-.26-8.92v-.21A6.15 6.15 0 1144 129a32 32 0 00-2 7.25 38.52 38.52 0 00-.44 7.51 41.82 41.82 0 003.4 14.7 49.14 49.14 0 008 12.88c.81 1 1.69 1.89 2.58 2.79s1.81 1.76 2.78 2.57 1.94 1.6 3 2.3c.51.35 1 .7 1.53 1a11.59 11.59 0 001.44.8 6.19 6.19 0 11-4.37 11.58 6.08 6.08 0 01-2-1.25zM218.25 113.1v1.87c0 .68 0 1.34-.1 2-.09 1.34-.25 2.67-.47 4a41.37 41.37 0 01-2.15 7.78 37.79 37.79 0 01-8.92 13.37 41.1 41.1 0 01-13.5 8.62 38.41 38.41 0 01-7.72 2.12c-1.31.22-2.63.38-4 .47-.67 0-1.33.07-2 .08h-2.92l-1-.06c-.67-.06-1.32-.13-2-.21a42.7 42.7 0 01-3.88-.72 39.55 39.55 0 01-30.5-39.42 38.94 38.94 0 0111.51-26.85A39.57 39.57 0 01218.25 113zm-11.13-.1a31 31 0 00-17.62-29 30.73 30.73 0 00-24.38-.82 31.48 31.48 0 00-10.55 6.94 32.37 32.37 0 00-6.93 10.56 31.65 31.65 0 00-2.19 12.39 30.82 30.82 0 0010 22 30.75 30.75 0 0010.3 6.23 29.86 29.86 0 005.78 1.46 29.18 29.18 0 003 .3h3.02a30.23 30.23 0 0020.59-9.34 34.17 34.17 0 006.36-9.47 29.56 29.56 0 001.85-5.44 27.49 27.49 0 00.53-2.85c.07-.47.12-1 .16-1.43l.06-.67v-.87z"/><path class="cls-1" d="M203.22 91.21l-26.84 21.09 37.96-4.99-4.22-11.5-6.9-4.6z"/></g></g></svg>