<svg xmlns="http://www.w3.org/2000/svg" viewBox="0 0 368.7 234.19"><defs><style>.cls-1{fill:#fff}</style></defs><g id="Слой_2" data-name="Слой 2"><g id="Layer_1_copy_3" data-name="Layer 1 copy 3"><path class="cls-1" d="M353.35 131l.22.06c2.42.28 4.81 4.35 4.53 4.53a7.7 7.7 0 01.32 2.54 9.14 9.14 0 01-.16 1.17c-.09.38-.11.41-.17.62a4.56 4.56 0 01-.18.52c-.08.21-.16.39-.24.58a12.31 12.31 0 01-.7 1.28c-.38.62-.71 1.08-1 1.52-.64.87-1.25 1.62-1.86 2.36-1.22 1.48-2.46 2.85-3.7 4.19-2.5 2.68-5 5.25-7.61 7.76-5.16 5-10.48 9.81-15.93 14.43a326.58 326.58 0 01-34.4 25.51 275.12 275.12 0 01-37.68 20.44 212.57 212.57 0 01-20.1 7.65 169.7 169.7 0 01-20.88 5.4 142 142 0 01-21.49 2.54c-1.81.07-3.62.09-5.43.09h-5.38c-3.56-.07-7.12-.22-10.67-.43a323.14 323.14 0 01-42.29-5.49 335.32 335.32 0 01-41.3-10.81c-6.76-2.28-13.5-4.72-20.11-7.54a193.64 193.64 0 01-19.59-9.48l4.66.7c-5 .82-9.94 1.67-15 2.27-2.52.32-5.06.56-7.64.72a75.11 75.11 0 01-7.82.17 44.35 44.35 0 01-8.12-.93 21.49 21.49 0 01-8.36-3.65 13.19 13.19 0 01-5.12-8.82 18.08 18.08 0 010-4.77 22.34 22.34 0 01.42-2.22c.09-.35.19-.71.29-1.06l.16-.52.08-.26.13-.37a5.46 5.46 0 01.28-.6l.18-.34.31-.53.57-.9 1.11-1.62c.73-1.06 1.46-2.09 2.19-3.1l4.46-6c3-4 6-7.9 9.12-11.76a246.1 246.1 0 0120-21.95c7-7 14.31-13.71 21.88-20.12s15.38-12.54 23.47-18.31c16.18-11.51 33.47-21.66 52.09-29A150.3 150.3 0 01165.8 59a111.42 111.42 0 0115.06-1.71c2.54-.11 5.07-.1 7.55-.08s5 .12 7.51.26q7.5.42 14.93 1.54c5 .72 9.89 1.65 14.76 2.8a194.49 194.49 0 0128.59 9.14c18.59 7.48 36 17.64 52.33 28.85 8.2 5.58 16.12 11.5 24 17.2 3.93 2.84 7.86 5.63 11.77 8.13 1.95 1.25 3.91 2.41 5.81 3.4s3.75 1.75 5.24 2.47zm-3.73 13.18h-.08a27 27 0 01-8.18-3.38c-2.39-1.37-4.57-2.82-6.69-4.3-4.22-3-8.14-6-12-9.09-7.73-6.14-15.28-12.24-23-18.08-15.36-11.71-31.49-22.31-49-30.26a160.81 160.81 0 00-55.27-14.43c-2.38-.17-4.78-.29-7.16-.35s-4.78-.08-7.13 0A104.87 104.87 0 00167 65.88a131.63 131.63 0 00-27.34 8.32c-17.67 7.48-34 18-49.33 29.71a446.52 446.52 0 00-43.29 38.54l-20.16 20.86c-3.36 3.49-6.68 7-9.86 10.65-1.6 1.81-3.16 3.65-4.64 5.52-.75.94-1.48 1.88-2.18 2.81-.35.47-.67.94-1 1.4l-.42.64-.16.26v.07l.07-.19-.19.59-.2.71c-.11.47-.21.93-.27 1.39a8.32 8.32 0 000 2.54 5.11 5.11 0 002.16 3.5 12.18 12.18 0 005.11 1.89 32.67 32.67 0 006.49.38 74 74 0 0013.73-2 118.8 118.8 0 0013.69-4l.49-.1a5.48 5.48 0 014.17.8c11.13 7.51 23.72 13.38 36.58 18.3a280.22 280.22 0 0039.78 11.72 275.36 275.36 0 0041.1 5.72c3.46.21 6.91.36 10.36.43h5.18c1.7 0 3.4-.05 5.1-.14a133.52 133.52 0 0020.26-2.59 160.43 160.43 0 0019.77-5.48 189.43 189.43 0 0019-7.92 246.69 246.69 0 0035.52-21 334.41 334.41 0 0032.21-25.92c5.09-4.64 10-9.43 14.77-14.38 2.36-2.47 4.67-5 6.87-7.53 1.1-1.27 2.15-2.56 3.15-3.8.5-.62 1-1.24 1.37-1.79.19-.27.36-.54.44-.66s0-.09-.05.13a1.81 1.81 0 00-.12.28c-.05.12-.09.24-.13.36s0 .14-.12.47a5.59 5.59 0 00-.13 1 6.73 6.73 0 00.3 2.38c-.28.12 2 4.16 4.44 4.4z"/><path class="cls-1" d="M20.65 72.18a122.36 122.36 0 0115.57-15.71 200.3 200.3 0 0117.22-13.14 258.71 258.71 0 0137.36-21A254 254 0 01131 7.51a210.17 210.17 0 0142.4-7.2 161.74 161.74 0 0121.68.11c7.09.58 14.06 1.35 21.06 2.27a378.64 378.64 0 0141.57 7.86A283.17 283.17 0 01298 23.8a187.14 187.14 0 0119 9.34q4.63 2.63 9.09 5.53c3 2 5.85 4 8.64 6.24a2.42 2.42 0 01-2.83 3.93 147.09 147.09 0 00-17.78-10.13 199.65 199.65 0 00-18.92-7.9 275.9 275.9 0 00-39.62-10.93 402.33 402.33 0 00-40.74-6.14c-6.82-.69-13.71-1.21-20.51-1.56a149.22 149.22 0 00-20.05.41 196.57 196.57 0 00-39.62 7.77c-6.48 1.93-12.87 4.19-19.19 6.64s-12.54 5.15-18.65 8.08a257.19 257.19 0 00-35.06 20.33 186 186 0 00-15.91 12.25A117.56 117.56 0 0032 81.55a7.38 7.38 0 01-11.43-9.33z"/><path class="cls-1" d="M42.13 120.2C61.58 96.43 85 75.87 111.92 60.64A171.7 171.7 0 01155 43.37a137.94 137.94 0 0146.51-3.5 172.74 172.74 0 0144.82 11 322.89 322.89 0 0141 19.49c13.18 7.25 26 14.93 39 22.06 6.49 3.58 13 7 19.74 10a106 106 0 0020.62 7 2.43 2.43 0 01-.88 4.77 104.41 104.41 0 01-21.98-6.19c-7.1-2.75-14-5.92-20.73-9.23-13.49-6.68-26.57-13.88-39.85-20.51s-26.65-12.83-40.44-17.64a162.4 162.4 0 00-42.22-9.18 126 126 0 00-42.33 4.36 148.93 148.93 0 00-20.21 7.2 189.45 189.45 0 00-19.21 9.78 221.79 221.79 0 00-35 25.52 265.17 265.17 0 00-30.26 31.26 7.38 7.38 0 01-11.4-9.36z"/><path class="cls-1" d="M244.33 66.06a17 17 0 012 1.94c.64.69 1.27 1.4 1.89 2.11q1.86 2.15 3.57 4.42A80.77 80.77 0 01268 128.25a79.5 79.5 0 01-4.77 22.52 81.68 81.68 0 01-69.56 52.93 83 83 0 01-44.36-8.48A84.84 84.84 0 01116 164.88a79.53 79.53 0 01-9.32-66 73.93 73.93 0 014.11-10.69c.81-1.72 1.69-3.42 2.62-5.08.47-.83 1-1.65 1.44-2.47.74-.65 0-2.26 3.92-.9l1.33.84c2.94 2.91 1.27 2.85 1.08 3.76-.42.76-.83 1.53-1.23 2.29q-1.19 2.31-2.21 4.7a82.63 82.63 0 00-3.44 9.77 79 79 0 00-2.9 20.45 74.65 74.65 0 0010.67 39.55 72.55 72.55 0 0030.41 27.67 74 74 0 0078.08-8.51 75.17 75.17 0 0023.95-32.74 77.73 77.73 0 003.7-40.52 73.73 73.73 0 00-11.67-28.69q-1.47-2.16-3.09-4.22c-.54-.69-1.09-1.36-1.65-2a23.21 23.21 0 01-1.65-2.09zM68.44 209.61c-1.47-1.06-2.65-2-3.92-3s-2.47-2-3.66-3.06q-3.59-3.1-6.93-6.46a78.25 78.25 0 01-11.84-15 45.33 45.33 0 01-6.29-18.68 41.78 41.78 0 01.33-10.23 62.11 62.11 0 012.54-10l.08-.25a6.13 6.13 0 1111.64 3.84 6.28 6.28 0 01-1.08 2A22.94 22.94 0 0044.05 163a25 25 0 001.19 7.76 33.12 33.12 0 003.44 7.34 49.86 49.86 0 0011.21 12.4 62.37 62.37 0 007 4.88c1.21.73 2.44 1.44 3.7 2.07a31.2 31.2 0 003.71 1.67 6.08 6.08 0 11-4 11.47 5.86 5.86 0 01-1.53-.8z"/><path class="cls-1" d="M232.74 123.13v1l-.07 1.19c0 .77-.12 1.51-.21 2.26-.18 1.5-.44 3-.76 4.46a44.67 44.67 0 01-2.9 8.53 49.09 49.09 0 01-10.25 14.52 45.16 45.16 0 01-23.21 12.27A45.06 45.06 0 01154.53 155c-8.28-8.41-13.27-20.15-12.75-32a43.64 43.64 0 014.22-16.72 49.86 49.86 0 019.77-14 44.71 44.71 0 0114-9.64A45.68 45.68 0 01186.49 79a45 45 0 0132 12.13 45.44 45.44 0 0114.27 32zm-11.13-.07a53.18 53.18 0 00-.45-6.9 34.38 34.38 0 00-1.76-6.73 36.13 36.13 0 00-7.35-11.93 36.76 36.76 0 00-11.5-8.39 36.55 36.55 0 00-40.84 7.17 33 33 0 00-7.89 12.42 37.6 37.6 0 00-2 14.41 41.3 41.3 0 003.1 13.85 36.49 36.49 0 0040.63 21.62 34.89 34.89 0 006.77-2.09 36.32 36.32 0 0011.68-7.91 33.12 33.12 0 007.42-11.88 36 36 0 001.72-6.74c.19-1.14.33-2.29.41-3.44 0-.57.06-1.16.07-1.72V123z"/><path class="cls-1" d="M216.23 97.84l-31.01 24.38 42.22 8.37-3.23-27.43-7.98-5.32zM185 107.87a8.64 8.64 0 11-8.64-8.64 8.63 8.63 0 018.64 8.64z"/></g></g></svg>