<svg xmlns="http://www.w3.org/2000/svg" viewBox="0 0 519.5 443.39"><defs><style>.cls-1{fill:#fff}</style></defs><g id="Слой_2" data-name="Слой 2"><g id="Layer_1_copy_2" data-name="Layer 1 copy 2"><path class="cls-1" d="M446.13 341.24a10.73 10.73 0 00-3.23.72 9.53 9.53 0 00-2.31 1.37 19 19 0 00-1.78 1.81l-1.73 1.86q-3.46 3.69-7.07 7.24-7.2 7.11-14.89 13.7a277.59 277.59 0 01-32.5 24.06 222 222 0 01-36 18.66 177.36 177.36 0 01-39.29 10.88 152 152 0 01-20.45 1.7c-6.79.09-13.59-.17-20.35-.65a256.06 256.06 0 01-40.19-6.25 292 292 0 01-75.86-29.32l2.54.82c-9.42-1.67-18.83-3-28.4-5.17a68.74 68.74 0 01-7.28-2 28.11 28.11 0 01-3.83-1.59 12.07 12.07 0 01-4.21-3.31 7.33 7.33 0 01-1.45-3.56 7.79 7.79 0 01.43-3.51 7.6 7.6 0 01.73-1.5l.54-.88c.36-.55.71-1.07 1.06-1.57 1.41-2 2.85-3.94 4.27-5.87 5.74-7.67 11.65-15.12 17.81-22.4s12.74-14.17 19.51-20.87a363.34 363.34 0 0143.54-37.13c15.54-11.13 32.3-20.86 50.48-27.51a135 135 0 0128.16-7.1 107.71 107.71 0 0114.59-1 137.71 137.71 0 0114.5.81c19.27 2.09 37.85 8.36 54.86 17.19a234.23 234.23 0 0147 32.69q10.73 9.48 20.49 20 4.88 5.24 9.48 10.71 2.31 2.75 4.53 5.56l1.11 1.41a6.5 6.5 0 001.26 1.31 7.82 7.82 0 004.29 1.47 3.63 3.63 0 01-.05 7.24zm-9.37-4.3c0-.1-.05-.21-.08-.31a5.78 5.78 0 00-.89-1.5l-1.07-1.38q-2.14-2.75-4.38-5.43-4.47-5.38-9.21-10.53a277.53 277.53 0 00-19.94-19.62 246.62 246.62 0 00-21.93-17.31 192.74 192.74 0 00-23.87-14.34c-16.52-8.38-34.37-14.19-52.68-16a121.56 121.56 0 00-13.75-.62 102.09 102.09 0 00-13.62 1.1 128 128 0 00-26.51 7.08 179.55 179.55 0 00-25 11.92 250.86 250.86 0 00-23.34 15.15 355.11 355.11 0 00-42.2 36.6c-6.58 6.63-12.92 13.49-19.23 20.38s-12.44 14-18 21.38c-1.4 1.84-2.75 3.73-4 5.61-.31.47-.61.93-.89 1.38l-.37.63c-.11.18-.19.39-.06.08 0 .18 0 .15 0 0a2 2 0 00-.08-.35 5.84 5.84 0 001.44.86 22.3 22.3 0 002.75 1 60.64 60.64 0 006.45 1.35c4.47.7 9.09 1.14 13.73 1.42s9.31.45 14 .44h.27a5.44 5.44 0 012.27.79c5.51 3.44 11.2 6.66 17 9.67s11.75 5.75 17.78 8.32a277.61 277.61 0 0037.15 12.81 246.74 246.74 0 0038.69 7c6.53.65 13.06 1 19.62 1a143.82 143.82 0 0019.44-1.28 162.32 162.32 0 0037.81-9.93 215.1 215.1 0 0035.14-17.73 268.07 268.07 0 0031.8-23.44q7.53-6.42 14.61-13.35 3.54-3.45 6.94-7l1.68-1.81a15.05 15.05 0 001.59-1.88 7.65 7.65 0 00.94-2.16z"/><path class="cls-1" d="M121.39 277.12A233.35 233.35 0 01153 245.66a187.71 187.71 0 0137.71-24 164.86 164.86 0 0164.79-16c3.71-.15 7.44-.17 11.14-.08s7.44.33 11.14.67a221.29 221.29 0 0143.36 8.71 307.82 307.82 0 0141.07 15.75 348 348 0 0138.54 20.94c6.19 3.9 12.26 8 18.15 12.33a203.47 203.47 0 0117 13.91 1.59 1.59 0 01-2.12 2.36A197.64 197.64 0 00416.75 267c-5.92-4.14-12-8-18.21-11.71A342.24 342.24 0 00360 235.56a302.09 302.09 0 00-40.64-14.42 214.28 214.28 0 00-42.18-7.38 160.81 160.81 0 00-42.3 2.75 155.81 155.81 0 00-39.88 13.9A177.09 177.09 0 00160 254a221.65 221.65 0 00-29.31 30.69 6 6 0 11-9.41-7.45l.08-.09z"/><path class="cls-1" d="M348.56 254.28c-1.4 2.59-.87 3.54-.15 4.2s1.29 1.5 1.91 2.27c1.24 1.55 2.44 3.12 3.6 4.73a95.27 95.27 0 016.28 10.08 91.92 91.92 0 018.5 22.23 85.77 85.77 0 012.22 23.87 80.76 80.76 0 01-4.87 23.62A86 86 0 01246.58 392a84.28 84.28 0 01-34.41-32.19 85.58 85.58 0 01-11.71-45.17 92 92 0 013.44-23.15 96.1 96.1 0 014-11c.78-1.8 1.63-3.57 2.53-5.31.46-.87.92-1.73 1.4-2.58.16-1.08 2.33-.83-1.73-4.58l10.15 6.41c-5.08-2.13-3.91-.25-4.72.33-.47.8-.94 1.6-1.4 2.41q-1.36 2.44-2.55 5a71.61 71.61 0 00-4 10.45 74.33 74.33 0 00-3.09 22.11 78.31 78.31 0 0012.79 42 82.49 82.49 0 0014.35 16.65 79.78 79.78 0 0018.21 12.14 78.6 78.6 0 00107.53-43.39 84.21 84.21 0 004.9-21.13 80.27 80.27 0 00-.64-21.77 72.26 72.26 0 00-6.82-20.85 71.39 71.39 0 00-5.73-9.43 65.11 65.11 0 00-3.4-4.35c-.6-.71-1.21-1.4-1.82-2.08s-1.32-1.24-4 0z"/><path fill="none" d="M115.5 203.45h332v239.94h-332z"/><path class="cls-1" d="M165 393.89c-.7-.66-1.18-1.16-1.72-1.74s-1-1.11-1.53-1.67c-1-1.13-1.95-2.24-2.86-3.38q-2.76-3.42-5.17-7a82.48 82.48 0 01-8.06-15.3 79.51 79.51 0 01-4.54-16.8c-.45-2.88-.76-5.8-.94-8.74s-.21-5.9-.26-8.91v-.22a6.15 6.15 0 0112.29-.19 6.25 6.25 0 01-.46 2.45 32.06 32.06 0 00-2 7.25 37.75 37.75 0 00-.43 7.51 41.86 41.86 0 003.39 14.7 49.14 49.14 0 008 12.88c.81 1 1.69 1.89 2.58 2.79s1.81 1.76 2.78 2.57 1.94 1.6 3 2.3c.51.35 1 .7 1.53 1a11.64 11.64 0 001.45.8 6.19 6.19 0 01-4.38 11.58 6.31 6.31 0 01-2-1.25zM346 297.55v1.92c0 .68-.05 1.34-.09 2q-.15 2-.48 4a41.37 41.37 0 01-2.15 7.78 37.75 37.75 0 01-8.92 13.37 41 41 0 01-13.5 8.62 38.5 38.5 0 01-7.71 2.12c-1.32.22-2.64.37-4 .46-.66.05-1.33.08-2 .09h-2.92l-1-.06c-.67-.06-1.32-.13-2-.22a39.13 39.13 0 01-3.89-.71 39.6 39.6 0 01-30.56-39.43 39 39 0 0111.51-26.84A39.56 39.56 0 01346 297.48zm-11.12-.07a31.07 31.07 0 00-17.63-29 30.73 30.73 0 00-24.38-.82 31.58 31.58 0 00-10.55 6.94 32.6 32.6 0 00-6.93 10.55 31.73 31.73 0 00-2.19 12.4 30.82 30.82 0 0010 22 30.75 30.75 0 0010.3 6.23 29.86 29.86 0 005.78 1.46 29.48 29.48 0 002.95.3H305.26a30.17 30.17 0 0020.58-9.35 33.66 33.66 0 006.36-9.47 30 30 0 001.86-5.43c.22-.94.4-1.89.53-2.85.06-.47.11-1 .16-1.44v-1.53z"/><path class="cls-1" d="M330.97 275.66l-26.84 21.09 37.96-4.99-4.22-11.5-6.9-4.6zM0 96.39l27.5 51 16-11 29.5 52 21-7.5 23.5 48-15.5-69-30 6.5-26.5-44-18 10-27.5-36zM519.5 92.39l-27.5 51-16-11-29.5 52-21-7.5-23.5 48 15.5-69 30 6.5 26.5-44 18 10 27.5-36zM291.98 0l3.03 57.86-19.38-1.07 1.84 59.75-21.84 4.52 4.88 53.22-22.63-67 29-10.05-.24-51.36 20.57-.82L291.98 0z"/></g></g></svg>