<svg xmlns="http://www.w3.org/2000/svg" viewBox="0 0 107.23 8.5"><defs><style>.cls-1{fill:#089ca7}</style></defs><g id="Слой_2" data-name="Слой 2"><g id="Isolation_Mode" data-name="Isolation Mode"><path class="cls-1" d="M100.36.13c1.45 0 2.9-.08 4.34.07a2.24 2.24 0 012.11 2 2.12 2.12 0 01-1.1 1.87 2.46 2.46 0 011.08.71 2.09 2.09 0 01-.29 2.87 3.64 3.64 0 01-2.33.69h-3.81zM102.93 2v1.52a3.4 3.4 0 001.15-.14.73.73 0 000-1.27 3.92 3.92 0 00-1.15-.11m0 3v1.53a4.76 4.76 0 001.46-.1.73.73 0 000-1.31 4.63 4.63 0 00-1.46-.12M81.19.12a4.71 4.71 0 014.24 1.08 4.39 4.39 0 01.42 5.62 4.71 4.71 0 01-7 .26A4.44 4.44 0 0178.46 2 4.19 4.19 0 0181.19.12m.34 2.25c-1.5.8-1.29 3.52.43 3.92 1.29.29 2.22-1.14 2-2.3a1.75 1.75 0 00-2.44-1.62M71 .13h2.65v6.15h2.67v2.09H71V.13m17.63 0h2.65c.63 1.09 1.25 2.2 1.88 3.29.57-1.1 1.14-2.2 1.72-3.29h2.87v8.24h-2.69v-4c-.42.77-.83 1.55-1.23 2.33h-1.3c-.42-.79-.84-1.58-1.28-2.36v4h-2.58V.13M30.94.51a4.83 4.83 0 014.83.31c-.37.6-.73 1.2-1.09 1.81a2.44 2.44 0 00-2.14-.52.36.36 0 000 .68c.93.53 2.19.52 2.9 1.43a2.7 2.7 0 01-1.09 4 5.12 5.12 0 01-4.94-.8c.36-.59.73-1.17 1.1-1.76a3 3 0 002.49.75.44.44 0 000-.82c-.89-.45-2-.52-2.69-1.27a2.55 2.55 0 01.63-3.81m8 1.22A4.34 4.34 0 0144.09.35a6.58 6.58 0 011.25.82L44 3a2.12 2.12 0 00-2.2-.63 2.2 2.2 0 00.1 3.77 2.32 2.32 0 002.29-.58c.45.59.89 1.19 1.32 1.79a4.4 4.4 0 01-3 1.13 4.16 4.16 0 01-3.82-1.9 4.53 4.53 0 01.2-4.85M0 .13C1.45.17 2.9 0 4.34.2a2.24 2.24 0 012.11 2 2.11 2.11 0 01-1.11 1.91 2.51 2.51 0 011.09.7 2.1 2.1 0 01-.29 2.88 3.6 3.6 0 01-2.34.68H0zM2.57 2v1.52a3.43 3.43 0 001.15-.15.73.73 0 000-1.26A3.69 3.69 0 002.57 2m0 3v1.53A4.69 4.69 0 004 6.43a.73.73 0 000-1.31A4.39 4.39 0 002.57 5m6 3.38c1-2.74 1.89-5.5 2.85-8.24h2.95c1 2.74 1.89 5.5 2.86 8.24h-2.78c-.14-.5-.29-1-.44-1.51h-2.39c-.14.5-.29 1-.43 1.5H8.56m3.65-3.49h1.22c-.2-.69-.39-1.38-.61-2.06-.22.69-.41 1.38-.61 2.06M19.08.13h2.75v4.9a1.22 1.22 0 102.44 0V.16H27v4.53a3.79 3.79 0 01-1.22 3 4.94 4.94 0 01-4 .73 3.37 3.37 0 01-2.69-3c-.12-1.74 0-3.49-.05-5.24m29 0h2.73v3.05h2.07V.18h2.75v8.19h-2.71V5.5h-2.05v2.87H48.1V.13M62 2.92h2.63v2.66H62V2.92"/><path d="M62 5.58h2.63v2.79H62V5.58m0-5.45h2.65v2.79H62V.13" fill="#77c699"/><path d="M64.65 2.92h2.76v2.67h-2.76V2.92m-5.42 0H62v2.66h-2.77V2.91" fill="#5ec7e8"/></g></g></svg>