<svg xmlns="http://www.w3.org/2000/svg" viewBox="0 0 240.65 133.58"><defs><style>.cls-1{fill:#025996;fill-rule:evenodd}</style></defs><g id="Слой_2" data-name="Слой 2"><g id="Layer_1" data-name="Layer 1"><path class="cls-1" d="M59.37 45.46l2.93-18.87H43.98l-2.92 18.9-5.54-.02-2.49 15.95h5.57l-5.53 35.74h18.21l5.84-35.74h10.57l2.56-15.93-10.88-.03zM229.84 45.46l2.91-18.87h-18.29l-2.97 19.18h-5.3l-2.32 15.65h5.2l-5.53 35.74h18.2l5.85-35.74h10.56l2.5-15.95-10.81-.01zM143.31 44.57c10.3-.81 18.08 3.78 22.48 10.33a23.56 23.56 0 014 15.74c-1.2 15.65-17.19 27.87-33.49 27.87A24.51 24.51 0 01119.26 92a23.62 23.62 0 01-7.42-16.86c-.13-9.9 5.39-17.11 9.67-21.12a34.59 34.59 0 019.21-6.3 35.54 35.54 0 0112.59-3.15zm-6.74 16c-4.77 3.1-9.45 12.22-5.62 19.33a9.42 9.42 0 009 4.5c8.24-.85 14.52-11.79 11.68-20-1.26-3.68-4.92-6.2-9.66-5.63a12.74 12.74 0 00-5.4 1.75z"/><path class="cls-1" d="M188.28 15.28c-3.39 5.81-4.39 14.42-5.63 22.8-.14 1-.55 4.2-.7 5.14s-.27 1.7-.4 2.54h-5.62l-2.32 15.65h5.54c-2.25 15.23-3.88 27.81-6.24 43.44-1 7.16-3 15.52-8.93 18.73l12.14 10a28.46 28.46 0 0010.08-10c2.85-4.85 4-11.69 5-18.7h-.08c3.6-23.14 9.58-64.59 9.75-65.81 1.52-10.83 2.11-22.56 14.59-22.42L218.17 0c-13.96.25-24.45 6-29.89 15.28zM7.86 45.47h19.1l-7.63 51.69H0l7.86-51.69zM10.98 25.83L9.03 39.29h19.33l1.89-13.46H10.98zM108.13 50.61L100 58.92c-1.8-1.17-4.71-3.4-7.59-2.53a3.25 3.25 0 00-2.34 2.71c-.13 2.29 3 4.35 4.51 5.42 2.24 1.58 4.12 2.55 6 4 3.5 2.7 7.35 6.09 7.59 12.29.83 21.4-33.64 22.64-42.65 9.21l9.22-8.49c2.67 1.84 4.72 4.31 8.31 5.24 4.45.51 7.25-1.52 6.86-4.88s-5.35-5.76-8-7.59a29.13 29.13 0 01-7.76-7.59A7 7 0 0173.07 64c-1.86-11.82 6.51-18.67 17.34-19.52 7.75-.62 14.23 2.17 17.72 6.13z"/></g></g></svg>