<svg xmlns="http://www.w3.org/2000/svg" viewBox="0 0 388.61 223.48"><defs><style>.cls-1{fill:#fff}</style></defs><g id="Слой_2" data-name="Слой 2"><g id="Layer_3" data-name="Layer 3"><path class="cls-1" d="M347.77 136.1a332 332 0 01-29.87 28.53 322.09 322.09 0 01-33.3 24.72A251.24 251.24 0 01247.93 209a183.47 183.47 0 01-40 12.2 144.19 144.19 0 01-21 2.18c-7 .16-13.89.08-20.82-.18a372.93 372.93 0 01-41.37-3.89 312.23 312.23 0 01-40.8-8.7c-13.43-3.9-26.72-8.69-39.31-16l3.66.88c-9.69-.18-19.3.14-29.09 0-2.46 0-4.93-.11-7.47-.3-1.28-.09-2.57-.21-3.95-.44a17.87 17.87 0 01-2.18-.47 10.66 10.66 0 01-2.69-1.11 6.72 6.72 0 01-1.74-1.52 5.76 5.76 0 01-1.17-2.8 6.34 6.34 0 01.23-2.41A10.26 10.26 0 01.82 185c.38-.78.71-1.34 1-1.81a6.66 6.66 0 00.5-1l.06-.16.13-.3c.12-.27.16-.34.23-.48s.23-.41.34-.59c.2-.33.39-.62.58-.9.38-.56.74-1.07 1.11-1.58.72-1 1.45-2 2.18-3 5.88-7.79 11.81-15.4 18.1-22.76s13.07-14.26 20-21q5.22-5 10.59-9.91T66.59 112c7.38-6.26 15-12.2 22.9-17.88 15.73-11.31 32.4-21.53 50.36-29.25a164 164 0 0127.84-9.3A119 119 0 01182.27 53c2.45-.26 4.93-.43 7.4-.52 1.25 0 2.46-.06 3.75 0s2.39 0 3.64 0c19.63.44 39 4.76 57.27 11.57a233.37 233.37 0 0151.46 27.56 266.37 266.37 0 0122.93 18.09q5.46 4.86 10.66 10c1.74 1.72 3.45 3.46 5.14 5.24l1.26 1.34a8.13 8.13 0 011.16 1.44 6.6 6.6 0 011 4.08zm-7.58-1a6.78 6.78 0 01-.77-.5 8.51 8.51 0 01-1.27-1.2l-1.15-1.29c-1.6-1.69-3.24-3.37-4.9-5q-5-5-10.23-9.66c-6.95-6.32-14.26-12.24-21.78-17.87a225.52 225.52 0 00-48.66-28 152.78 152.78 0 00-54.49-12 101.45 101.45 0 00-27.54 3 146.63 146.63 0 00-26.4 9.36c-17 7.91-32.88 18.28-47.85 29.77a484.42 484.42 0 00-42.61 37.39c-6.74 6.64-13.31 13.46-20 20.19s-13.3 13.54-19.22 20.81c-.73.91-1.46 1.81-2.15 2.72-.33.45-.66.91-1 1.34l-.39.61-.08.23v-.18c.07-.2 0 .05 0 .05a14.83 14.83 0 01-1 2.2c-.33.58-.6 1.05-.75 1.35-.07.14-.1.23-.08.2a1.46 1.46 0 000-.63 2.48 2.48 0 00-.49-1.21 2 2 0 00-.37-.37s.27.11.64.2.85.17 1.34.24c1 .14 2.07.21 3.18.26 2.23.07 4.55 0 6.88-.09s4.68-.28 7-.49 4.7-.46 7.06-.75c4.71-.57 9.42-1.27 14.12-2.17h.29a5.54 5.54 0 013.36.89 121.58 121.58 0 0017.32 9.2 195.4 195.4 0 0018.8 7.02 299.4 299.4 0 0039.23 9.62 363.12 363.12 0 0040.31 4.7c6.75.4 13.56.67 20.25.62a138.55 138.55 0 0019.89-1.78 170.07 170.07 0 0038.55-11.26A238.8 238.8 0 00281 183.76a313.73 313.73 0 0032.77-24q7.81-6.53 15.22-13.5 3.71-3.49 7.29-7.09c1.33-1.36 2.64-2.72 3.91-4.08z"/><path class="cls-1" d="M39.78 64.43a247.42 247.42 0 0131.91-24.07 267.1 267.1 0 0135.13-18.84 249.35 249.35 0 0176.76-20.45Q193.51.11 203.5 0a177.54 177.54 0 0120.05.86c13.37 1.35 26.88 4.61 39.2 10.76a101.89 101.89 0 0117.3 10.94A156.13 156.13 0 01295 36c9.29 9.4 17.65 19.16 27 27.67a4.78 4.78 0 01-6.39 7.1c-10-8.83-18.68-18.65-27.75-27.52a145.67 145.67 0 00-14.14-12.32A91.08 91.08 0 00258 21.4c-11-5.26-23.13-8-35.52-9.06a167.15 167.15 0 00-18.76-.48c-6.3.16-12.6.6-18.86 1.31a236.15 236.15 0 00-72.48 20.62 244.59 244.59 0 00-62.7 41.58 7.37 7.37 0 01-10-10.85zM278.84 77.87a3.09 3.09 0 01.49 1.11l.35 1.16c.23.78.44 1.56.65 2.33.41 1.56.78 3.13 1.13 4.7a80.25 80.25 0 011.59 9.59c.09.81.16 1.63.22 2.45s.1 1.69.09 2.44c0 1.7-.05 3.29-.15 4.94a78.2 78.2 0 01-1.16 9.77 83.65 83.65 0 01-15.76 35.71 85.55 85.55 0 01-105.42 24.76 87.84 87.84 0 01-30.11-24.1 83 83 0 01-16.54-35 81.84 81.84 0 01-1.61-19.42 78.8 78.8 0 011-9.72c.26-1.6.56-3.2.91-4.79.17-.79.36-1.58.55-2.37l.15-.59a1.1 1.1 0 01.24-.57c.34-.33 1.14-.55 3-.48l1.53.4c1.64.82 2.25 1.36 2.4 1.78a1.05 1.05 0 010 .56l-.12.55c-.15.72-.3 1.45-.43 2.18-.26 1.46-.48 2.92-.66 4.39a84.63 84.63 0 00-.58 8.84 82.67 82.67 0 001.62 17.63 79 79 0 0014.44 32.07A75.23 75.23 0 00164 170.55a76.71 76.71 0 0068.52-1.27A78.08 78.08 0 00259 146.57a77.64 77.64 0 0014-31.9 84.42 84.42 0 001.19-8.71c.12-1.44.2-2.95.23-4.36 0-.81 0-1.48.08-2.22s0-1.46 0-2.2c0-3 0-6-.26-9-.11-1.5-.26-3-.44-4.48l-.31-2.23-.17-1.1a3.11 3.11 0 01-.07-1.15zM67.18 203.3c-.71-.6-1.24-1.09-1.82-1.62l-1.66-1.57c-1.07-1.06-2.15-2.1-3.17-3.18q-3.11-3.21-5.93-6.64a77.85 77.85 0 01-9.74-14.92A55.25 55.25 0 0139.64 158a53.66 53.66 0 01-.32-9.33 80.1 80.1 0 011.13-9.42v-.3A6.15 6.15 0 0152.63 141a6.3 6.3 0 01-.88 2.28 24.38 24.38 0 00-2.93 6.72 26.71 26.71 0 00-.94 7.35 32.17 32.17 0 003.86 14.56 47.73 47.73 0 009.39 12.38 53.69 53.69 0 006 5c1.07.76 2.14 1.5 3.26 2.16.56.33 1.11.66 1.68 1a17.45 17.45 0 001.6.77 6.14 6.14 0 11-4.2 11.54 5.93 5.93 0 01-1.83-1.06z"/><path class="cls-1" d="M244.2 114.7v1l-.06 1.16c-.06.75-.12 1.47-.21 2.21a40.14 40.14 0 01-.76 4.36 43.21 43.21 0 01-2.84 8.32 47.62 47.62 0 01-10 14.17 44.21 44.21 0 01-14.37 9.51 43.75 43.75 0 01-8.3 2.47 44 44 0 01-39.79-12.05 41.24 41.24 0 01-8.33-47.57A49 49 0 01169 84.63a43.9 43.9 0 0161.22-1.23 44.33 44.33 0 0113.95 31.23zm-11.12-.07a55.69 55.69 0 00-.44-6.7 32.91 32.91 0 00-1.69-6.52 34.91 34.91 0 00-7.12-11.58 35.55 35.55 0 00-11.15-8.16 35.31 35.31 0 00-27.68-.86 36 36 0 00-12 7.79 32 32 0 00-7.66 12.08 36.62 36.62 0 00-1.9 14 39.87 39.87 0 003 13.43 36.14 36.14 0 007.73 11.34 35.6 35.6 0 0011.39 7.62 35.1 35.1 0 0013.49 2.68 33.84 33.84 0 0013.38-2.69 35 35 0 0011.32-7.68 32 32 0 007.25-11.53 34.75 34.75 0 001.66-6.53c.18-1.11.3-2.22.38-3.34 0-.56.06-1.12.08-1.67v-1.68z"/><path class="cls-1" d="M218.12 82.21l-20.46 32.5 33.73-20.14-4.21-10.1-9.06-2.26zM189.21 101.5a5.81 5.81 0 11-7.43-3.5 5.82 5.82 0 017.43 3.5zM365.57 125.69c.67.19 1.58.36 2.4.5s1.7.25 2.57.33a43.16 43.16 0 005.22.17 38.77 38.77 0 0010.42-1.69 1 1 0 011.27.65 1 1 0 01-.51 1.21 40.64 40.64 0 01-10.75 3.6 45.24 45.24 0 01-5.71.73c-1 .06-1.92.1-2.9.1a29.64 29.64 0 01-3-.15 2.77 2.77 0 01.59-5.51 2.49 2.49 0 01.4.06zM48.53 205.05c2.15 1.67 4.46 3.3 6.77 4.84s4.69 3 7.11 4.4a66.91 66.91 0 0015.22 6.63 1 1 0 01.71 1.24 1 1 0 01-1.19.72 69.79 69.79 0 01-16.12-6q-3.84-1.94-7.53-4.13c-2.46-1.46-4.86-3-7.26-4.64a1.9 1.9 0 012.19-3.11l.07.05zM286.65 208.38a104.43 104.43 0 0010.53-5c3.47-1.84 6.88-3.84 10.21-5.95A172.42 172.42 0 00358 148a1 1 0 011.7 1.09 175.1 175.1 0 01-30.7 37.14 176.29 176.29 0 01-19 15.1c-3.35 2.3-6.77 4.48-10.29 6.53a109.81 109.81 0 01-11 5.65 2.76 2.76 0 11-2.21-5.06h.08zM369.83 134.71a15.32 15.32 0 001.92.72c.7.21 1.41.4 2.14.57a38.38 38.38 0 004.44.71 46 46 0 009.16-.07 1 1 0 01.33 2 47.23 47.23 0 01-9.6 1.2 38.69 38.69 0 01-4.92-.19c-.83-.09-1.65-.21-2.48-.36a20.29 20.29 0 01-2.59-.64 2.13 2.13 0 011.34-4z"/></g></g></svg>