<svg xmlns="http://www.w3.org/2000/svg" viewBox="0 0 335.09 199.94"><defs><style>.cls-1,.cls-2{fill:none;stroke:#fff;stroke-miterlimit:10}.cls-1{stroke-width:12px}.cls-2{stroke-width:4px}</style></defs><g id="Слой_2" data-name="Слой 2"><g id="Layer_1" data-name="Layer 1"><path class="cls-1" d="M327.54 100s-71.63 94-160 94-160-94-160-94 71.64-94 160-94 160 94 160 94z"/><circle class="cls-1" cx="167.54" cy="99.97" r="56.33"/><path class="cls-2" d="M308.53 123.5l-29.73-2.28-15.5-8.75-12.01 2"/><path class="cls-2" d="M291.55 121.22l-3-8.75-9.75-6.25M278.8 121.22l-10.92 10.08h-7.33M327.55 99.97l-27.67-13.33-18.67 2-9.66-7.34M299.88 86.64V97.3M281.75 53.86l-25.2 9.28-12.67 21.16M267.8 59l-17.92-8.7M246.99 29.6l-10.78 10.7-6.44 3.33M236.21 40.3v16.67M217.5 14.23l-10.96 7.07v10.34M206.54 21.3h-8M158.85 3.47V19.3l-4.97 4.04M158.85 13.3l12.36 8M260.55 161.87l-9.26-15.9 2.92-7.67M251.29 145.97l-18.41 1.33M7.55 100.02l39-2.72 12-13M45.45 97.41l13.1 8.81 12.33 3.42M20.55 99.97l8.33 12.5M56.96 48.79l11.59 16.85h21.33M68.54 65.64V77.3M33.9 65.75l11.55 7.89 7.1-2.74M86.9 30.3l2.98 10 12 5v11.67M101.88 45.3h9M123.73 13.38l3.82 9.96-3.17 9.96M127.54 21.3l8.34 2.04M89.88 41.3l-3.67 12.56M127.54 29.6l4.17 2.03M236.21 50.3l-6.44 1.42M256.54 63.14l-15.34.61M257.22 53.86l1.62-6.28M93.81 173.53l12.57-23.45-2.58-7.36"/><path class="cls-2" d="M96.6 166.97h8.72l11.23-5.38M105.32 166.97l3.72 6.13M99.71 161.59l-15.5-4.62-2.91-11M36.1 135.25l9.35-3.95 7.1-12.58M45.45 131.3h13.1l10-2.79M136.78 192.87l5.1-19.77 6.66-3.06M138.4 185.19l-8.11-12.09M183.21 166.97l-2.17 6.13 14.17 17.85-21.67-5.76"/><path class="cls-2" d="M190.22 183.29l4.99-4.14v-6.05M186.49 179.15l-9.61 2.84M227.78 179.15l1.99-17.28-13.62-.28M229.77 160.47l1.02-7.75"/><path fill="#fff" d="M193.44 47l-25.9 52.97 45.91-35.48"/></g></g></svg>