<svg xmlns="http://www.w3.org/2000/svg" viewBox="0 0 345.74 239.94"><defs><style>.cls-1{fill:#fff}</style></defs><g id="Слой_2" data-name="Слой 2"><g id="Layer_3" data-name="Layer 3"><path class="cls-1" d="M337.74 138.37c-4.13 5.3-8.3 10.35-12.71 15.28q-6.88 7.71-14.28 14.92a277.41 277.41 0 01-31.58 26.66 214.19 214.19 0 01-35.77 21 158.86 158.86 0 01-39.84 12.42 137.61 137.61 0 01-41.91.33 192 192 0 01-40.37-10.65c-26.08-9.64-50.1-23.84-73.44-37.72l3.65.87c-9.81-.1-19.58.1-29.58-.75a73 73 0 01-7.61-1c-1.29-.23-2.58-.53-3.91-.9a24.57 24.57 0 01-4.08-1.51 12.77 12.77 0 01-4.22-3.17A9 9 0 01.5 171.4a9.22 9.22 0 01-.5-3.13 15 15 0 011-4.82l.32-.87a9.29 9.29 0 01.52-1.3c.27-.5.45-.79.65-1.1l.57-.86c1.48-2.14 2.91-4.11 4.41-6.06s3-3.91 4.46-5.83c3-3.86 6-7.67 9.16-11.4a251.37 251.37 0 0120.04-21.23q10.53-10.12 21.77-19.47T86.18 77.6c16-11.13 33.08-21 51.45-28.12A153.49 153.49 0 01166 41.3a114.17 114.17 0 0114.78-1.74c2.47-.13 5-.15 7.44-.13s5 .14 7.44.31a140.44 140.44 0 0129.13 5.31 168.71 168.71 0 0127.49 10.8c17.65 8.77 33.76 20.3 48.42 33.28a269.56 269.56 0 0120.83 20.71q4.9 5.47 9.53 11.2 2.31 2.86 4.55 5.8l1.11 1.48a8.57 8.57 0 011 1.58 7 7 0 01.6 4.17zm-6.74-1.49a7.38 7.38 0 01-1.44-1 8.58 8.58 0 01-1.15-1.34l-1-1.41q-2.13-2.81-4.34-5.57-4.44-5.52-9.15-10.81c-6.25-7.1-12.86-13.87-19.75-20.34-13.83-12.93-28.98-24.41-45.58-33.32s-34.72-14.94-53.41-16.29c-2.33-.17-4.67-.28-7-.32s-4.66 0-7 .14a108.24 108.24 0 00-13.86 1.74 137.2 137.2 0 00-26.85 8.25C123.15 64 106.94 74 91.74 85.31a439.49 439.49 0 00-43.13 37.22c-6.77 6.68-13.43 13.46-20.15 20.22-3.34 3.38-6.66 6.79-9.88 10.29-1.59 1.77-3.18 3.52-4.69 5.34s-3 3.64-4.29 5.45l-.44.64c-.12.2-.26.42-.27.45.21-.54-.05.16-.13.38l-.3.82a7.15 7.15 0 00-.55 2.2 1 1 0 00.29.72 5.07 5.07 0 001.59 1 21.35 21.35 0 005.86 1.49 66.7 66.7 0 006.74.51 126.92 126.92 0 0014-.6c4.7-.45 9.41-1.06 14.09-1.92h.3a5.52 5.52 0 013.36.89c11.46 7.5 22.75 14.86 34.43 21.59a299 299 0 0036 17.83 183.06 183.06 0 0038.3 11 132.32 132.32 0 0019.76 1.8 124.67 124.67 0 0019.75-1.37 146.65 146.65 0 0038.14-11.37 203 203 0 0034.76-20.07 272 272 0 0031-25.85q7.27-7 14.07-14.52 3.39-3.75 6.64-7.62c1.37-1.61 2.7-3.28 4.01-4.95z"/><path class="cls-1" d="M18.59 72.77l.93-1.09 1-1.18q1-1.12 2.07-2.19 2.09-2.15 4.27-4.11c2.9-2.62 5.89-5.05 9-7.34a197.19 197.19 0 0118.92-12.45A316.93 316.93 0 0195 24.92a378.94 378.94 0 0142.1-14.25 315.62 315.62 0 0143.66-8.86C188.11.89 195.57.26 203.07.07a155.05 155.05 0 0122.66 1 123.17 123.17 0 0143.45 13.48c13.49 7.13 25.35 16.68 36.08 26.86s20.56 21 31.05 30.65a4.78 4.78 0 01-6.41 7.08c-11.12-9.94-21-20.62-31.6-30.28s-21.73-18.38-34.15-24.7a111.7 111.7 0 00-39.72-11.68c-13.84-1.45-28.06-.55-42.13 1.4A302.81 302.81 0 00140.52 23a363.59 363.59 0 00-40.43 14.36A304 304 0 0062 56.54a184.08 184.08 0 00-17.42 11.79A87.39 87.39 0 0030 82.17a7.38 7.38 0 11-11.5-9.24l.1-.12z"/><path class="cls-1" d="M244.52 53a18.74 18.74 0 012.14 2c.67.72 1.33 1.46 2 2.21q2 2.25 3.74 4.64a84.73 84.73 0 0116.92 56.35 83.5 83.5 0 01-5 23.61 86.17 86.17 0 01-119.45 46.65 88.85 88.85 0 01-34.92-31.83 85.1 85.1 0 01-13.23-45.5 87.48 87.48 0 01.85-12 85.31 85.31 0 012.62-11.73 78.3 78.3 0 014.3-11.21q1.28-2.71 2.75-5.33c.48-.87 1-1.74 1.5-2.59.78-.68 0-2.37 4-1l1.34.84c1.48 1.49 1.78 2.21 1.67 2.68s-.44.8-.66 1.2c-.45.8-.88 1.6-1.3 2.41q-1.26 2.43-2.34 4.95a87.23 87.23 0 00-3.63 10.29 79.18 79.18 0 00-2.24 10.66 80.71 80.71 0 00-.82 10.89 78.7 78.7 0 0011.24 41.7 76.59 76.59 0 0032 29.16 78.53 78.53 0 00107.59-43.45 81.82 81.82 0 003.83-42.72 77.54 77.54 0 00-6.79-20.73 79.08 79.08 0 00-5.54-9.49c-1-1.51-2.13-3-3.26-4.44-.58-.72-1.16-1.43-1.75-2.14a24.09 24.09 0 01-1.74-2.18z"/><path fill="none" d="M13.74 0h332v239.94h-332z"/><path class="cls-1" d="M67.53 191.38c-1.44-1.13-2.6-2.14-3.85-3.21s-2.41-2.13-3.57-3.23q-3.51-3.27-6.75-6.77A80.21 80.21 0 0142 162.7a47.67 47.67 0 01-6-18.91 43.22 43.22 0 01.39-10.28A61.07 61.07 0 0139 123.43l.08-.25A6.13 6.13 0 0150.67 127a6.3 6.3 0 01-1.07 2 23.63 23.63 0 00-5.34 14.48 26.57 26.57 0 001.09 7.92 35.13 35.13 0 003.29 7.54 51.6 51.6 0 0010.91 12.91 62.85 62.85 0 006.84 5.2c1.2.79 2.4 1.55 3.65 2.24a33 33 0 003.69 1.82 6.08 6.08 0 01-4.49 11.31 6.62 6.62 0 01-1.49-.85zM223.05 109v1l-.06 1.16c0 .75-.12 1.48-.2 2.21-.18 1.47-.44 2.92-.76 4.36a45 45 0 01-2.84 8.33 48.07 48.07 0 01-10 14.16 44.36 44.36 0 01-14.38 9.51 43.65 43.65 0 01-8.29 2.47 43.91 43.91 0 01-39.8-12.05 42.36 42.36 0 01-12.44-31.25 42.91 42.91 0 014.11-16.32 49.22 49.22 0 019.53-13.62 43.89 43.89 0 0161.22-1.23 44.4 44.4 0 0114 31.23zm-11.13-.07a55.68 55.68 0 00-.43-6.7 33.64 33.64 0 00-1.7-6.52 34.69 34.69 0 00-7.12-11.58A35.43 35.43 0 00191.52 76a35.28 35.28 0 00-27.65-.86 36 36 0 00-12 7.79A31.85 31.85 0 00144.19 95a36.43 36.43 0 00-1.91 14 39.65 39.65 0 003 13.43 35.81 35.81 0 007.73 11.34 35.07 35.07 0 0024.88 10.3 34.35 34.35 0 006.8-.66 33.33 33.33 0 006.57-2 35.14 35.14 0 0011.33-7.68 32.22 32.22 0 007.18-11.53 35.33 35.33 0 001.66-6.53c.18-1.11.29-2.22.37-3.34 0-.56.07-1.12.08-1.67v-1.68z"/><path class="cls-1" d="M206.83 84.38l-30.2 23.73 41.11 8.15-3.15-26.7-7.76-5.18zM173.11 92.82A5.81 5.81 0 11167.3 87a5.82 5.82 0 015.81 5.82z"/></g></g></svg>